<mxfile host="app.diagrams.net" modified="2020-12-28T03:29:14.039Z" agent="5.0 (Windows NT 10.0; Win64; x64) AppleWebKit/537.36 (KHTML, like Gecko) Chrome/87.0.4280.88 Safari/537.36" etag="VOg1nWN3PCHjxbtH5div" version="14.1.2" type="github">
  <diagram id="R2lEEEUBdFMjLlhIrx00" name="Page-1">
    <mxGraphModel dx="1422" dy="762" grid="1" gridSize="10" guides="1" tooltips="1" connect="1" arrows="1" fold="1" page="1" pageScale="1" pageWidth="850" pageHeight="1100" math="0" shadow="0" extFonts="Permanent Marker^https://fonts.googleapis.com/css?family=Permanent+Marker">
      <root>
        <mxCell id="0" />
        <mxCell id="1" parent="0" />
        <mxCell id="2kVcuih4vim7N5ecQymW-15" value="" style="edgeStyle=orthogonalEdgeStyle;rounded=0;orthogonalLoop=1;jettySize=auto;html=1;" edge="1" parent="1" source="2kVcuih4vim7N5ecQymW-1" target="2kVcuih4vim7N5ecQymW-3">
          <mxGeometry relative="1" as="geometry">
            <Array as="points">
              <mxPoint x="310" y="320" />
              <mxPoint x="310" y="320" />
            </Array>
          </mxGeometry>
        </mxCell>
        <mxCell id="2kVcuih4vim7N5ecQymW-22" value="" style="edgeStyle=orthogonalEdgeStyle;rounded=0;orthogonalLoop=1;jettySize=auto;html=1;" edge="1" parent="1" source="2kVcuih4vim7N5ecQymW-1" target="2kVcuih4vim7N5ecQymW-2">
          <mxGeometry relative="1" as="geometry">
            <Array as="points">
              <mxPoint x="190" y="240" />
              <mxPoint x="190" y="240" />
            </Array>
          </mxGeometry>
        </mxCell>
        <mxCell id="2kVcuih4vim7N5ecQymW-26" value="" style="edgeStyle=orthogonalEdgeStyle;rounded=0;orthogonalLoop=1;jettySize=auto;html=1;" edge="1" parent="1" target="2kVcuih4vim7N5ecQymW-24">
          <mxGeometry relative="1" as="geometry">
            <mxPoint x="150" y="340" as="sourcePoint" />
            <Array as="points">
              <mxPoint x="110" y="340" />
              <mxPoint x="110" y="340" />
            </Array>
          </mxGeometry>
        </mxCell>
        <mxCell id="2kVcuih4vim7N5ecQymW-1" value="&lt;u&gt;API Gateway&lt;/u&gt;&lt;br&gt;/auth&lt;br&gt;/users" style="rounded=1;whiteSpace=wrap;html=1;" vertex="1" parent="1">
          <mxGeometry x="150" y="300" width="120" height="60" as="geometry" />
        </mxCell>
        <mxCell id="2kVcuih4vim7N5ecQymW-23" value="" style="edgeStyle=orthogonalEdgeStyle;rounded=0;orthogonalLoop=1;jettySize=auto;html=1;" edge="1" parent="1" source="2kVcuih4vim7N5ecQymW-2" target="2kVcuih4vim7N5ecQymW-1">
          <mxGeometry relative="1" as="geometry">
            <Array as="points">
              <mxPoint x="230" y="240" />
              <mxPoint x="230" y="240" />
            </Array>
          </mxGeometry>
        </mxCell>
        <mxCell id="2kVcuih4vim7N5ecQymW-2" value="&lt;u&gt;auth-service&lt;/u&gt;&lt;br&gt;post /auth/signup&lt;br&gt;post /auth/signin&lt;br&gt;get /auth" style="rounded=1;whiteSpace=wrap;html=1;" vertex="1" parent="1">
          <mxGeometry x="150" y="150" width="120" height="60" as="geometry" />
        </mxCell>
        <mxCell id="2kVcuih4vim7N5ecQymW-14" style="edgeStyle=orthogonalEdgeStyle;rounded=0;orthogonalLoop=1;jettySize=auto;html=1;" edge="1" parent="1" source="2kVcuih4vim7N5ecQymW-3" target="2kVcuih4vim7N5ecQymW-6">
          <mxGeometry relative="1" as="geometry" />
        </mxCell>
        <mxCell id="2kVcuih4vim7N5ecQymW-16" value="" style="edgeStyle=orthogonalEdgeStyle;rounded=0;orthogonalLoop=1;jettySize=auto;html=1;" edge="1" parent="1" source="2kVcuih4vim7N5ecQymW-3" target="2kVcuih4vim7N5ecQymW-1">
          <mxGeometry relative="1" as="geometry">
            <Array as="points">
              <mxPoint x="350" y="340" />
              <mxPoint x="350" y="340" />
            </Array>
          </mxGeometry>
        </mxCell>
        <mxCell id="2kVcuih4vim7N5ecQymW-3" value="&lt;u&gt;user-service&lt;br&gt;g&lt;/u&gt;et /users/{client}&lt;br&gt;put /users&lt;br&gt;post /users" style="rounded=1;whiteSpace=wrap;html=1;" vertex="1" parent="1">
          <mxGeometry x="370" y="300" width="120" height="60" as="geometry" />
        </mxCell>
        <mxCell id="2kVcuih4vim7N5ecQymW-12" value="" style="edgeStyle=orthogonalEdgeStyle;rounded=0;orthogonalLoop=1;jettySize=auto;html=1;" edge="1" parent="1" source="2kVcuih4vim7N5ecQymW-5" target="2kVcuih4vim7N5ecQymW-11">
          <mxGeometry relative="1" as="geometry" />
        </mxCell>
        <mxCell id="2kVcuih4vim7N5ecQymW-13" style="edgeStyle=orthogonalEdgeStyle;rounded=0;orthogonalLoop=1;jettySize=auto;html=1;entryX=0.5;entryY=0;entryDx=0;entryDy=0;" edge="1" parent="1" source="2kVcuih4vim7N5ecQymW-5" target="2kVcuih4vim7N5ecQymW-2">
          <mxGeometry relative="1" as="geometry" />
        </mxCell>
        <mxCell id="2kVcuih4vim7N5ecQymW-5" value="auth-service" style="shape=cylinder3;whiteSpace=wrap;html=1;boundedLbl=1;backgroundOutline=1;size=15;" vertex="1" parent="1">
          <mxGeometry x="165" y="35" width="90" height="60" as="geometry" />
        </mxCell>
        <mxCell id="2kVcuih4vim7N5ecQymW-8" value="" style="edgeStyle=orthogonalEdgeStyle;rounded=0;orthogonalLoop=1;jettySize=auto;html=1;" edge="1" parent="1" source="2kVcuih4vim7N5ecQymW-6" target="2kVcuih4vim7N5ecQymW-7">
          <mxGeometry relative="1" as="geometry" />
        </mxCell>
        <mxCell id="2kVcuih4vim7N5ecQymW-6" value="user-service" style="shape=cylinder3;whiteSpace=wrap;html=1;boundedLbl=1;backgroundOutline=1;size=15;" vertex="1" parent="1">
          <mxGeometry x="385" y="410" width="90" height="60" as="geometry" />
        </mxCell>
        <mxCell id="2kVcuih4vim7N5ecQymW-7" value="&lt;b&gt;&lt;u&gt;user&lt;/u&gt;&lt;/b&gt;&lt;br&gt;client&lt;br&gt;fullname" style="shape=note;whiteSpace=wrap;html=1;backgroundOutline=1;darkOpacity=0.05;align=left;" vertex="1" parent="1">
          <mxGeometry x="510" y="410" width="70" height="60" as="geometry" />
        </mxCell>
        <mxCell id="2kVcuih4vim7N5ecQymW-11" value="&lt;b&gt;&lt;u&gt;client_details&lt;br&gt;&lt;/u&gt;&lt;/b&gt;client&lt;br&gt;secret&lt;br&gt;roles" style="shape=note;whiteSpace=wrap;html=1;backgroundOutline=1;darkOpacity=0.05;align=left;" vertex="1" parent="1">
          <mxGeometry x="290" y="30" width="110" height="70" as="geometry" />
        </mxCell>
        <mxCell id="2kVcuih4vim7N5ecQymW-25" style="edgeStyle=orthogonalEdgeStyle;rounded=0;orthogonalLoop=1;jettySize=auto;html=1;" edge="1" parent="1">
          <mxGeometry relative="1" as="geometry">
            <mxPoint x="70" y="320" as="sourcePoint" />
            <mxPoint x="150" y="320" as="targetPoint" />
            <Array as="points">
              <mxPoint x="70" y="320" />
              <mxPoint x="150" y="320" />
            </Array>
          </mxGeometry>
        </mxCell>
        <mxCell id="2kVcuih4vim7N5ecQymW-24" value="client" style="shape=umlActor;verticalLabelPosition=bottom;verticalAlign=top;html=1;outlineConnect=0;" vertex="1" parent="1">
          <mxGeometry x="40" y="290" width="30" height="60" as="geometry" />
        </mxCell>
        <mxCell id="2kVcuih4vim7N5ecQymW-28" value="forward auth for /users" style="text;html=1;strokeColor=none;fillColor=none;align=center;verticalAlign=middle;whiteSpace=wrap;rounded=0;" vertex="1" parent="1">
          <mxGeometry x="100" y="220" width="80" height="20" as="geometry" />
        </mxCell>
        <mxCell id="2kVcuih4vim7N5ecQymW-32" value="X-Auth-Client&lt;br&gt;X-Auth-Roles" style="text;html=1;strokeColor=none;fillColor=none;align=center;verticalAlign=middle;whiteSpace=wrap;rounded=0;" vertex="1" parent="1">
          <mxGeometry x="230" y="220" width="90" height="20" as="geometry" />
        </mxCell>
        <mxCell id="2kVcuih4vim7N5ecQymW-33" value="X-Auth-Client&lt;br&gt;X-Auth-Roles" style="text;html=1;strokeColor=none;fillColor=none;align=center;verticalAlign=middle;whiteSpace=wrap;rounded=0;" vertex="1" parent="1">
          <mxGeometry x="280" y="290" width="90" height="20" as="geometry" />
        </mxCell>
      </root>
    </mxGraphModel>
  </diagram>
</mxfile>
